<?xml version="1.0" encoding="UTF-8" standalone="no"?>
<svg xmlns:sketch="http://www.bohemiancoding.com/sketch/ns" xmlns="http://www.w3.org/2000/svg" height="24px" width="24px" version="1.1" xmlns:xlink="http://www.w3.org/1999/xlink" viewBox="0 0 24 24">
 <title/>
 <desc/>
 <g id="miu" fill-rule="evenodd" fill="none">
  <g id="Artboard-1" transform="translate(-539 -407)">
   <path id="common-search-lookup-glyph" d="m555.48 421.36c0.96-1.38 1.52-3.05 1.52-4.86 0-4.69-3.81-8.5-8.5-8.5s-8.5 3.81-8.5 8.5 3.81 8.5 8.5 8.5c1.81 0 3.48-0.56 4.86-1.52l6.3 6.3c0.12 0.12 0.3 0.12 0.42 0l1.7-1.7c0.12-0.11 0.11-0.31 0-0.42l-6.3-6.3zm-6.98 1.64c3.59 0 6.5-2.91 6.5-6.5s-2.91-6.5-6.5-6.5-6.5 2.91-6.5 6.5 2.91 6.5 6.5 6.5z" fill="#000"/>
  </g>
 </g>
</svg>
